<svg width="60" height="60" viewBox="0 0 60 60" fill="none" xmlns="http://www.w3.org/2000/svg">
<rect x="2.37402" y="4.03885" width="55.9991" height="51.287" fill="#F4D0DB"/>
<path d="M5.92527 0.0847511C4.55255 0.328365 3.26322 0.982273 2.24331 1.93749C1.59544 2.55294 1.19774 3.09786 0.761545 3.98897C0.338184 4.84803 0.164991 5.44424 0.0559437 6.37382C0.0046272 6.82258 -0.00820191 13.586 0.0046272 30.4018C0.0302854 55.9491 0.0046272 54.0002 0.376672 55.1157C1.21056 57.6031 3.40434 59.4751 5.98941 59.8918C6.86821 60.0392 53.2647 60.0328 54.0858 59.8918C56.8825 59.4045 59.0571 57.43 59.8268 54.6861L60 54.0579V29.9851V5.91224L59.8268 5.3032C59.3778 3.69407 58.3707 2.2324 57.0814 1.31564C56.4848 0.892521 55.4264 0.392475 54.6759 0.187325L54.0345 0.0142326L30.2364 0.00141144C9.8189 -0.00500107 6.36787 0.00782013 5.92527 0.0847511ZM22.6993 10.9768C24.3415 11.1691 25.5025 11.4641 26.7918 12.009C29.6527 13.2334 32.225 15.6183 33.7003 18.4198L33.989 18.9648L33.1743 19.3687C30.756 20.5611 28.8894 22.4395 27.305 25.2731C25.8745 27.831 25.4127 30.5236 25.9772 32.9533C26.0542 33.2674 26.0991 33.5303 26.0798 33.5495C26.0349 33.5944 25.0278 33.7546 24.3351 33.8252C23.2895 33.9277 21.8334 33.9662 20.7942 33.9149L19.8256 33.8636L19.4536 34.5688C17.6639 37.9922 16.4836 39.5757 14.9249 40.6335C14.3668 41.0182 13.8152 41.249 12.962 41.4605C11.5572 41.8131 9.31215 42.1657 9.74193 41.967C11.5893 41.1143 12.3527 40.5886 13.5714 39.3193C14.3476 38.5243 14.7709 37.8961 15.4188 36.5883C15.9576 35.5112 16.2719 34.7483 16.4708 34.0367L16.5991 33.5751L16.458 33.5495C16.381 33.5303 16.118 33.4854 15.8678 33.4469C15.2135 33.3444 13.9884 32.9212 13.1801 32.5109C11.8331 31.8378 10.6592 30.9659 9.511 29.7735C7.7021 27.9143 7.0863 26.3693 7.00291 23.5037C6.94518 21.6702 7.12479 20.3175 7.63154 18.7981C8.24734 16.9453 9.34422 15.2401 10.6849 14.0669C12.7183 12.291 15.5792 11.1756 18.8827 10.8807C19.723 10.8101 21.6923 10.855 22.6993 10.9768ZM42.2894 18.7019C44.419 19.0225 46.4717 19.7533 48.0048 20.7406C49.6405 21.792 51.3917 23.5485 52.3667 25.1192C53.2711 26.5745 54.0345 28.5106 54.2333 29.8568C54.5091 31.7416 54.105 33.9983 53.1364 35.9792C52.6553 36.9601 52.2127 37.6076 51.5328 38.3128C49.9291 39.9732 47.6135 40.8579 43.8995 41.2297C42.9822 41.3259 41.0835 41.4605 40.7114 41.4605H40.5382L40.8846 42.4798C41.2759 43.6274 41.7121 44.557 42.2509 45.3711C42.7897 46.1853 44.1175 47.4739 45.3876 48.4163C45.9585 48.8394 46.414 49.192 46.4075 49.2048C46.3947 49.2113 45.9521 49.0702 45.4133 48.8971C41.7121 47.6791 39.6466 46.2558 38.0558 43.8261C37.5811 43.1145 36.8306 41.7426 36.5804 41.1592C36.4714 40.9028 36.3688 40.7553 36.3046 40.7553C36.0993 40.7553 34.4572 40.3066 33.7003 40.0501C30.6855 39.0116 28.3121 37.037 27.0933 34.5368L26.7982 33.9277L27.0099 33.87C29.7874 33.1136 32.1159 31.6519 33.5079 29.7991C33.989 29.1645 34.5983 28.0041 34.8742 27.222C35.6632 24.9846 35.6439 22.0869 34.8293 19.7854L34.6497 19.2853L35.0987 19.1507C36.0031 18.875 36.8434 18.7276 38.5754 18.5481C39.2104 18.484 41.4298 18.5737 42.2894 18.7019ZM34.4187 20.1508C34.8421 21.4778 34.9127 21.9779 34.9127 23.6062C34.9127 24.8884 34.8934 25.1641 34.7715 25.7282C34.5278 26.8566 34.0467 28.0874 33.5528 28.8567C32.2827 30.8441 30.2493 32.3186 27.6706 33.1392C26.5481 33.4982 26.6443 33.5046 26.5288 33.0751C26.2979 32.216 26.2594 31.9211 26.2658 30.8185C26.2658 29.9081 26.2915 29.5683 26.4134 29.0234C27.0548 26.0103 29.1396 22.7728 31.6476 20.8688C32.3725 20.3239 33.9761 19.4392 34.1493 19.4905C34.1814 19.5033 34.3033 19.7982 34.4187 20.1508Z" fill="#E73E26"/>
</svg>
